<?xml version="1.0" encoding="utf-8"?>
<!-- Generator: Adobe Illustrator 16.0.0, SVG Export Plug-In . SVG Version: 6.00 Build 0)  -->
<!DOCTYPE svg PUBLIC "-//W3C//DTD SVG 1.1//EN" "http://www.w3.org/Graphics/SVG/1.1/DTD/svg11.dtd">
<svg version="1.1" id="Layer_1" xmlns="http://www.w3.org/2000/svg" xmlns:xlink="http://www.w3.org/1999/xlink" x="0px" y="0px"
	 width="448.667px" height="132px" viewBox="0 0 448.667 132" enable-background="new 0 0 448.667 132" xml:space="preserve">
<g>
	<defs>
		<rect id="SVGID_1_" width="448.667" height="132"/>
	</defs>
	<clipPath id="SVGID_2_">
		<use xlink:href="#SVGID_1_"  overflow="visible"/>
	</clipPath>
	<path clip-path="url(#SVGID_2_)" d="M117.244,21.815l14.138-2.149v52.028c0,3.394-0.679,9.501,7.013,9.84
		c-0.227,1.471-1.584,11.425-1.584,11.425s-19.454,2.714-19.454-13.8C117.356,62.646,117.244,21.815,117.244,21.815"/>
	<path clip-path="url(#SVGID_2_)" d="M247.192,41.382c-4.637,0-10.292,2.715-10.292,2.715V19.779l-14.024,1.697v69.672
		c0,0,10.179,2.375,21.263,2.149c10.465-0.214,24.544-5.203,24.544-26.354C268.683,43.645,251.83,41.382,247.192,41.382
		 M244.817,81.309c-4.523,0-8.369-0.452-8.369-0.452V55.294c0,0,17.758-7.917,17.758,11.424
		C254.206,76.105,249.342,81.309,244.817,81.309"/>
	<path clip-path="url(#SVGID_2_)" d="M81.562,41.958c-12.345,0.861-23.375,10.75-23.375,24.875c0,20,15.625,23.75,20.125,23.75
		s8.75-0.375,11.875-1.125c0,13.25-6.625,14.125-12.5,14.125c-4.5,0-12.875-3.125-12.875-3.125s-2.125,6.125-3.375,10.125
		c6.25,2.375,13.25,4.75,22.5,4.75c17.75,0,19.75-18.25,19.75-23.375V45.583C96.562,42.208,86.937,41.583,81.562,41.958
		 M90.187,80.458c0,0-17.125,3.375-17.125-13.375c0-16.75,17.125-13.625,17.125-13.625V80.458z"/>
</g>
<g>
	<defs>
		<path id="SVGID_3_" d="M156.561,66.5c0,14.727,11.94,26.667,26.667,26.667c14.728,0,26.666-11.94,26.666-26.667
			c0-14.728-11.938-26.666-26.666-26.666C168.501,39.834,156.561,51.772,156.561,66.5"/>
	</defs>
	<clipPath id="SVGID_4_">
		<use xlink:href="#SVGID_3_"  overflow="visible"/>
	</clipPath>
	
		<linearGradient id="SVGID_5_" gradientUnits="userSpaceOnUse" x1="0" y1="132" x2="1" y2="132" gradientTransform="matrix(37.5138 36.4285 36.4285 -37.5138 -4642.0654 5002.0791)">
		<stop  offset="0" style="stop-color:#F7DC04"/>
		<stop  offset="0.9955" style="stop-color:#D6A229"/>
		<stop  offset="1" style="stop-color:#D6A229"/>
	</linearGradient>
	<polygon clip-path="url(#SVGID_4_)" fill="url(#SVGID_5_)" points="182.445,13.179 236.549,65.718 184.01,119.822 129.906,67.283 	
		"/>
</g>
<g>
	<defs>
		<rect id="SVGID_6_" width="448.667" height="132"/>
	</defs>
	<clipPath id="SVGID_7_">
		<use xlink:href="#SVGID_6_"  overflow="visible"/>
	</clipPath>
	<path clip-path="url(#SVGID_7_)" d="M167.742,44.808l37.614,36.587c1.231-1.827,2.239-3.815,2.991-5.926L173.58,41.651
		C171.493,42.461,169.536,43.526,167.742,44.808"/>
	<path clip-path="url(#SVGID_7_)" d="M157.795,58.476l34.164,33.231c2.143-0.743,4.162-1.747,6.018-2.982l-37.363-36.341
		C159.434,54.269,158.479,56.312,157.795,58.476"/>
	<path clip-path="url(#SVGID_7_)" d="M189.416,40.573l19.573,19.038C206.473,50.194,198.934,42.836,189.416,40.573"/>
	<path clip-path="url(#SVGID_7_)" d="M176.248,92.248l-18.556-18.049C160.331,82.977,167.37,89.846,176.248,92.248"/>
	<path clip-path="url(#SVGID_7_)" d="M160.395,109.511h43.167c1,0,4-1-1.167-3.5c-5.655-2.736-21.333-9.167-40.833,0.167
		C159.895,107.344,156.228,109.511,160.395,109.511"/>
	<path clip-path="url(#SVGID_7_)" d="M199.206,89.719c-4.783,3.432-10.642,5.458-16.978,5.458
		c-16.109,0-29.167-13.058-29.167-29.166c0-11.546,6.71-21.524,16.442-26.25c0,0,1.725-0.834,2.037-1.021
		c0.313-0.188,1.672-1.435,0.667-2.834c-0.479-0.666-1.521-0.979-2-0.806c-12.373,4.815-21.146,16.834-21.146,30.911
		c0,18.317,14.849,33.166,33.167,33.166c9.025,0,17.204-3.609,23.184-9.458H199.206z"/>
	<path clip-path="url(#SVGID_7_)" d="M301.728,40.958c-24.603,2.208-22,27.75-22,27.75s0.834,25,24.75,25c7,0,12-0.25,20.625-3.875
		c-0.625-1.375-3.769-9-3.769-9s-5.521,2.333-12.981,2.625c-7.78,0.304-14.228-2.542-16.228-11.292l35.375-3.75
		C327.5,68.417,326.89,38.7,301.728,40.958 M317.167,61.667l-26.417,2.75c0,0-0.791-11.417,10-13.917
		C315.112,47.173,317.167,61.667,317.167,61.667"/>
	<path clip-path="url(#SVGID_7_)" d="M361.061,40.958c-24.603,2.208-22,27.75-22,27.75s0.834,25,24.75,25c7,0,12-0.25,20.625-3.875
		c-0.625-1.375-3.769-9-3.769-9s-5.521,2.333-12.981,2.625c-7.779,0.304-14.228-2.542-16.228-11.292l35.375-3.75
		C386.833,68.417,386.223,38.7,361.061,40.958 M376.5,61.667l-26.417,2.75c0,0-0.5-11.542,10-13.917
		C374.463,47.248,376.5,61.667,376.5,61.667"/>
</g>
</svg>
